<html>
<head>
<meta charset="UTF-8">
<meta name="viewport" content="width=device-width, initial-scale=1.0"/>

<style>
.comment
{
    padding-left: 20px;
    margin-top: 4px;
    margin-right: 4px;
    margin-bottom: 4px;
    border: 2px #000 solid;
}
.submission
{
    border: 4px #00f solid;
    padding-left: 20px;
}
.hidden
{
    display: none;
}
</style>
</head>
<body><div class="submission" id="t3_5yqfyf">
    <p class="userinfo">
        <a href="https://www.reddit.com/u/jodorowsthesky">jodorowsthesky</a>
        <span class="score"> | 12 points</span>
        <span class="timestamp"> | Mar 11 2017 02:34:00</span>
    </p>
    <strong>[MOVIE] Rabid (1977) [720p][x264][2.76GB]</strong>
    <p><p>.nz/#!WkNyFAjC!1j6PG1tqaduEYSWu-2Ef_AXpGFk0iKKXSARIh-d58i4  </p>
<pre><code>Format                                   : Matroska
Format version                           : Version 2
File size                                : 2.77 GiB
Duration                                 : 1 h 31 min
Overall bit rate                         : 4 335 kb/s
Encoded date                             : UTC 2015-02-16 13:26:26
Writing application                      : mkvmerge v7.0.0 ('Where We Going') 32bit built on Jun  9 2014 15:08:34
Writing library                          : libebml v1.3.0 + libmatroska v1.4.1

Video
ID                                       : 1
Format                                   : AVC
Format/Info                              : Advanced Video Codec
Format profile                           : High@L4.1
Format settings, CABAC                   : Yes
Format settings, ReFrames                : 5 frames
Codec ID                                 : V_MPEG4/ISO/AVC
Duration                                 : 1 h 31 min
Bit rate                                 : 3 698 kb/s
Width                                    : 1 280 pixels
Height                                   : 720 pixels
Display aspect ratio                     : 16:9
Frame rate mode                          : Constant
Frame rate                               : 23.976 (24000/1001) FPS
Color space                              : YUV
Chroma subsampling                       : 4:2:0
Bit depth                                : 8 bits
Scan type                                : Progressive
Bits/(Pixel*Frame)                       : 0.167
Stream size                              : 2.36 GiB (85%)
Writing library                          : x264 core 142 r2431 ac76440
Encoding settings                        : cabac=1 / ref=5 / deblock=1:0:0 / analyse=0x3:0x3 / me=dia / subme=1 / psy=1 / psy_rd=1.00:0.00 / mixed_ref=0 / me_range=16 / chroma_me=1 / trellis=0 / 8x8dct=1 / cqm=0 / deadzone=21,11 / fast_pskip=1 / chroma_qp_offset=0 / threads=48 / lookahead_threads=5 / sliced_threads=0 / nr=0 / decimate=1 / interlaced=0 / bluray_compat=0 / constrained_intra=0 / bframes=3 / b_pyramid=2 / b_adapt=1 / b_bias=0 / direct=1 / weightb=1 / open_gop=0 / weightp=1 / keyint=240 / keyint_min=23 / scenecut=40 / intra_refresh=0 / rc_lookahead=0 / rc=abr / mbtree=0 / bitrate=3698 / ratetol=1.0 / qcomp=0.60 / qpmin=0 / qpmax=69 / qpstep=4 / vbv_maxrate=62500 / vbv_bufsize=78125 / nal_hrd=none / filler=0 / ip_ratio=1.40 / pb_ratio=1.30 / aq=1:1.00
Default                                  : Yes
Forced                                   : No

Audio
ID                                       : 2
Format                                   : AC-3
Format/Info                              : Audio Coding 3
Mode extension                           : CM (complete main)
Format settings, Endianness              : Big
Codec ID                                 : A_AC3
Duration                                 : 1 h 31 min
Bit rate mode                            : Constant
Bit rate                                 : 640 kb/s
Channel(s)                               : 1 channel
Channel positions                        : Front: C
Sampling rate                            : 48.0 kHz
Frame rate                               : 31.250 FPS (1536 spf)
Compression mode                         : Lossy
Stream size                              : 418 MiB (15%)
Language                                 : English
Default                                  : Yes
Forced                                   : No
</code></pre></p>
    <p class="toolbar">
        <a href="https://www.reddit.com/r/megalinks/comments/5yqfyf">permalink</a>
    </p>
</div>
<div class="comment" id="t1_des74cs">
    <p class="userinfo">
        <a
        class="toggle_hide_button"
        href="javascript:void(0)"
        onclick="toggle_collapse(this.parentElement.parentElement)">[-]
        </a>
        <a href="https://www.reddit.com/u/Shanks01">Shanks01</a>
        <span class="score"> | 2 points</span>
        <span class="timestamp"> | Mar 11 2017 03:40:32</span>
    </p>
    <div class="collapsible">
        <p>Muchas gracias.</p>
        <p class="toolbar">
            <a href="https://www.reddit.com/r/megalinks/comments/5yqfyf/_/des74cs">permalink</a>
        </p>
        
    </div>
</div>

<div class="comment" id="t1_des4lr2">
    <p class="userinfo">
        <a
        class="toggle_hide_button"
        href="javascript:void(0)"
        onclick="toggle_collapse(this.parentElement.parentElement)">[-]
        </a>
        <a href="https://www.reddit.com/u/SubZorro">SubZorro</a>
        <span class="score"> | 1 points</span>
        <span class="timestamp"> | Mar 11 2017 02:36:05</span>
    </p>
    <div class="collapsible">
        <h5>Subtitles for this movie:</h5>
<hr>
<blockquote>
<ul>
<li>
<p><strong>Rabid.1977.1080p.BluRay.x264.YIFY</strong> - <code>1 CD</code> - <a href="http://dl.opensubtitles.org/en/download/vrf-563c1251/sub/6088340">Download Subtitle</a></p>
</li>
<li>
<p><strong>Rabid.1977.720p.BluRay.x264-x0r</strong> - <code>1 CD</code> - <a href="http://dl.opensubtitles.org/en/download/vrf-836b08bb/sub/6802493">Download Subtitle</a></p>
</li>
<li>
<p><strong>Rabid (w. com) belos</strong> - <code>1 CD</code> - <a href="http://dl.opensubtitles.org/en/download/vrf-98ebfdd6/sub/5795451">Download Subtitle</a></p>
</li>
<li>
<p><strong>Rabid (1977) R Xvid 640x352 Dual AC3 WS-belos.avi</strong> - <code>1 CD</code> - <a href="http://dl.opensubtitles.org/en/download/vrf-a2d19af8/sub/5816885">Download Subtitle</a></p>
</li>
<li>
<p><strong>Rabid (1977) BluRay Yify -GWB</strong> - <code>1 CD</code> - <a href="http://dl.opensubtitles.org/en/download/vrf-9e6e37f5/sub/6048399">Download Subtitle</a></p>
</li>
</ul>
</blockquote>
<hr>
<p>^This ^list ^of ^subtitles ^are ^taken ^from <a href="http://www.opensubtitles.org">^opensubtitles.org</a> ^| ^For ^feedback ^or ^suggestions ^contact <a href="http://www.reddit.com/message/compose/?to=indigo6alpha">^/u/indigo6alpha</a></p>
        <p class="toolbar">
            <a href="https://www.reddit.com/r/megalinks/comments/5yqfyf/_/des4lr2">permalink</a>
        </p>
        
    </div>
</div>

<div class="comment" id="t1_des4lrl">
    <p class="userinfo">
        <a
        class="toggle_hide_button"
        href="javascript:void(0)"
        onclick="toggle_collapse(this.parentElement.parentElement)">[-]
        </a>
        <a href="https://www.reddit.com/u/boltrop">boltrop</a>
        <span class="score"> | 1 points</span>
        <span class="timestamp"> | Mar 11 2017 02:36:06</span>
    </p>
    <div class="collapsible">
        <h3><a href="https://images-na.ssl-images-amazon.com/images/M/MV5BZmNjNGY5ZTEtODQ2Yi00ZTFiLTg3YjAtYWQ4NWU1YmZjODY1XkEyXkFqcGdeQXVyMTQxNzMzNDI@._V1_.jpg">Rabid</a> (1977)</h3>
<p><strong>Genre</strong>: Horror, Sci-Fi</p>
<p><strong>Rating</strong>:  6.4 (10948 votes)</p>
<p><strong>Certification</strong>: R</p>
<p><strong>Runtime</strong>: 91 min</p>
<hr>
<blockquote>
<p><strong>Director(s)</strong>: <a href="https://www.imdb.com/name/nm0000343/">David Cronenberg</a></p>
<p><strong>Writer(s)</strong>: <a href="https://www.imdb.com/name/nm0000343/">David Cronenberg</a></p>
<p><strong>Cast</strong>: <a href="https://www.imdb.com/name/nm0001032/">Marilyn Chambers</a>, <a href="https://www.imdb.com/name/nm0601210/">Frank Moore</a>, <a href="https://www.imdb.com/name/nm0798718/">Joe Silver</a>, <a href="https://www.imdb.com/name/nm0753447/">Howard Ryshpan</a></p>
<p><strong>Plot</strong>: A young woman develops a taste for human blood after undergoing experimental plastic surgery, and her victims turn into rabid, blood-thirsty zombies who proceed to infect others, which turns into a city-wide epidemic.</p>
</blockquote>
<hr>
<p>^This ^summary ^is ^taken ^from <a href="https://www.imdb.com/title/tt0076590/">^imdb.com</a> ^| ^For ^feedback ^or ^suggestions ^contact <a href="http://www.reddit.com/message/compose/?to=indigo6alpha">^/u/indigo6alpha</a></p>
        <p class="toolbar">
            <a href="https://www.reddit.com/r/megalinks/comments/5yqfyf/_/des4lrl">permalink</a>
        </p>
        
    </div>
</div>
</body>

<script>
function toggle_collapse(comment_div)
{
    var button = comment_div.getElementsByClassName("toggle_hide_button")[0];
    var collapsible = comment_div.getElementsByClassName("collapsible")[0];
    if (collapsible.classList.contains("hidden"))
    {
        collapsible.classList.remove("hidden");
        button.innerText = "[-]";
    }
    else
    {
        collapsible.classList.add("hidden");
        button.innerText = "[+]";
    }
}
</script>
</html>
